<?xml version="1.0" standalone="no"?>
<!DOCTYPE svg PUBLIC "-//W3C//DTD SVG 20010904//EN"
 "http://www.w3.org/TR/2001/REC-SVG-20010904/DTD/svg10.dtd">
<svg version="1.0" xmlns="http://www.w3.org/2000/svg"
 width="1024.000000pt" height="1024.000000pt" viewBox="0 0 1024.000000 1024.000000"
 preserveAspectRatio="xMidYMid meet">

<g transform="translate(0.000000,1024.000000) scale(0.100000,-0.100000)"
fill="#000000" stroke="none">
<path d="M4173 9062 l-1263 -2 0 -40 0 -40 -95 0 c-78 0 -95 -3 -95 -15 0 -11
-13 -15 -47 -17 -27 -1 -57 -2 -68 -2 -13 -1 -21 -9 -23 -24 -3 -20 -9 -22
-57 -22 -48 0 -54 -2 -57 -22 -2 -19 -10 -24 -44 -26 -33 -2 -44 -8 -53 -28
-9 -20 -17 -25 -39 -22 -23 3 -27 -1 -30 -24 -3 -28 -16 -34 -64 -30 -11 1
-20 -8 -24 -23 -4 -16 -14 -25 -32 -27 -19 -2 -28 -10 -30 -25 -2 -16 -11 -23
-35 -25 -24 -2 -33 -8 -35 -25 -3 -18 -10 -23 -33 -23 -25 0 -29 -4 -29 -29 0
-27 -3 -30 -44 -36 -41 -7 -45 -10 -48 -38 -2 -24 -9 -33 -28 -37 -18 -4 -26
-14 -30 -35 -4 -24 -11 -31 -35 -35 -23 -4 -32 -12 -40 -37 -6 -22 -15 -33
-27 -33 -13 0 -18 -8 -18 -30 0 -23 -4 -30 -20 -30 -14 0 -20 -7 -20 -22 0
-30 -11 -45 -35 -49 -14 -3 -21 -13 -23 -37 -2 -24 -8 -32 -23 -32 -16 0 -19
-7 -19 -40 0 -28 -4 -40 -14 -40 -20 0 -29 -17 -28 -51 0 -22 -4 -29 -19 -29
-15 0 -19 -7 -19 -34 0 -25 -5 -35 -20 -39 -16 -4 -20 -14 -20 -51 0 -34 -4
-46 -15 -46 -11 0 -15 -12 -15 -50 0 -38 -4 -50 -15 -50 -12 0 -15 -14 -15
-70 0 -56 -3 -70 -15 -70 -12 0 -15 -14 -15 -65 0 -37 -4 -65 -10 -65 -7 0
-10 -792 -10 -2355 0 -2348 0 -2355 20 -2355 19 0 20 -7 20 -100 l0 -100 25 0
c24 0 25 -3 25 -60 0 -47 3 -60 15 -60 16 0 18 -8 15 -53 -1 -21 4 -30 19 -34
21 -5 25 -13 21 -46 -1 -12 7 -21 20 -24 21 -6 22 -10 17 -69 -3 -48 -1 -64 9
-68 11 -4 14 -28 14 -95 0 -85 1 -90 22 -93 18 -2 24 -11 28 -38 4 -27 10 -36
27 -38 18 -3 23 -10 23 -32 0 -17 7 -33 16 -38 11 -6 15 -18 12 -35 -4 -19 0
-27 14 -30 11 -3 18 -14 18 -29 0 -14 8 -27 22 -33 13 -6 26 -24 30 -43 5 -18
15 -32 24 -32 20 0 29 -27 15 -44 -9 -10 -8 -15 4 -20 8 -3 15 -15 15 -26 0
-11 7 -23 16 -27 9 -3 14 -15 12 -28 -1 -12 9 -35 24 -54 15 -17 25 -38 22
-45 -3 -8 3 -16 15 -19 14 -3 21 -13 21 -30 0 -26 43 -63 60 -52 18 11 32 -5
19 -21 -6 -8 -7 -14 -2 -14 5 0 16 -11 23 -25 9 -18 19 -23 32 -19 14 4 16 1
11 -12 -4 -12 -3 -15 5 -10 7 4 12 2 12 -3 0 -6 7 -11 15 -11 8 0 15 -9 15
-19 0 -14 8 -21 27 -23 18 -2 29 -10 32 -23 4 -24 19 -35 49 -35 12 0 23 -6
24 -12 0 -7 2 -20 2 -28 1 -8 8 -14 14 -12 22 4 52 -18 52 -38 0 -15 8 -19 43
-22 37 -3 42 -6 45 -28 3 -24 7 -26 54 -25 47 0 52 -2 58 -24 5 -21 12 -25 45
-25 34 -1 41 -5 43 -24 3 -21 8 -22 78 -22 72 0 74 -1 74 -25 0 -28 -1 -28
112 -25 l77 2 3 -29 3 -28 2192 -3 2192 -2 3 27 3 28 143 3 142 3 0 24 c0 24
3 25 60 25 53 0 60 2 60 20 0 17 7 20 45 20 38 0 45 3 45 20 0 16 8 19 63 22
54 3 62 5 62 23 0 17 7 20 40 20 36 0 40 3 43 28 3 27 5 28 55 25 47 -3 52 -1
55 19 2 13 9 24 15 24 7 1 19 3 27 4 8 1 20 3 26 4 7 0 14 10 17 21 4 14 14
20 34 20 37 0 55 13 51 36 -2 16 4 20 40 22 37 3 42 6 42 28 0 13 5 24 10 24
36 0 59 17 53 39 -4 17 1 20 34 23 33 3 38 6 41 31 3 22 8 27 32 27 21 0 29 6
34 25 4 16 13 25 26 25 15 0 20 7 20 25 0 19 5 25 21 25 15 0 19 5 15 16 -3 8
-2 12 4 9 6 -3 10 0 10 8 0 16 27 30 41 21 5 -3 9 -1 9 5 0 5 -4 13 -10 16 -5
3 -10 11 -10 16 0 6 5 7 11 3 6 -3 24 8 40 25 16 18 33 29 39 26 6 -4 10 5 10
20 0 20 6 27 30 32 28 5 30 8 25 34 -6 26 -4 29 19 29 22 0 26 4 26 29 0 23 5
30 22 33 17 2 23 10 23 28 0 18 5 25 18 24 11 -1 17 5 17 21 0 13 10 29 24 38
17 12 22 22 19 41 -5 23 -2 26 22 26 24 0 26 3 20 30 -6 26 -3 30 19 36 23 5
26 11 26 50 0 39 2 44 23 44 20 0 23 4 19 34 -3 29 -1 34 22 40 25 6 26 10 26
71 0 63 1 65 25 65 l25 0 0 100 c0 93 1 100 20 100 20 0 20 7 20 2310 0 2047
-2 2310 -15 2310 -12 0 -15 18 -16 95 -1 52 -3 100 -4 105 -1 6 -3 15 -4 20 0
6 -10 10 -21 10 -18 0 -20 7 -20 54 0 49 -2 55 -22 58 -19 2 -24 10 -26 45 -3
35 -7 42 -29 48 -23 5 -25 9 -19 45 6 36 4 39 -23 45 -27 6 -29 9 -25 46 5 39
4 40 -23 37 -26 -3 -28 0 -28 30 0 25 -6 36 -25 45 -18 9 -25 21 -23 38 1 20
-3 25 -20 25 -18 -1 -23 6 -25 32 -3 28 -7 33 -22 29 -20 -5 -45 15 -33 26 3
4 0 7 -8 7 -12 0 -12 2 1 10 11 7 9 11 -14 19 -21 9 -26 15 -21 32 5 14 3 20
-7 18 -7 -1 -28 5 -46 12 -28 12 -32 18 -27 38 5 18 3 22 -9 18 -9 -4 -19 0
-23 8 -10 18 -139 115 -153 115 -5 0 -10 9 -10 19 0 13 -8 21 -22 23 -19 2
-24 10 -26 41 -3 32 -7 37 -28 37 -20 0 -24 5 -24 30 0 23 -4 30 -20 30 -13 0
-20 7 -20 19 0 25 -29 54 -47 47 -8 -3 -16 2 -19 12 -19 57 -28 72 -45 72 -14
0 -19 7 -19 29 0 31 -14 41 -60 41 -25 0 -29 4 -32 33 -3 28 -6 32 -30 29 -20
-2 -28 2 -28 13 0 8 -4 15 -10 15 -5 0 -10 7 -10 16 0 12 -7 15 -25 12 -19 -4
-25 -1 -25 13 0 26 -26 48 -50 42 -15 -4 -20 0 -20 15 0 22 -22 35 -45 26 -11
-5 -17 3 -21 25 -6 28 -10 31 -45 31 -32 0 -39 4 -39 19 0 16 -9 21 -45 27
-35 5 -45 10 -45 25 0 17 -8 19 -60 19 -57 0 -60 1 -60 25 0 24 -2 25 -65 25
-56 0 -65 2 -65 18 0 17 -9 18 -92 18 l-93 -1 -3 40 -3 40 -982 0 c-540 0
-1550 -1 -2244 -3z m3747 -707 l0 -65 85 0 85 0 0 -70 0 -70 70 0 70 0 0 -215
0 -215 -70 0 -70 0 0 -100 0 -100 -85 0 -85 0 0 -65 0 -65 -200 0 -200 0 -2
28 c-1 15 -2 36 -3 47 -1 11 -3 28 -4 38 -1 15 -12 17 -81 17 l-80 0 0 101 0
102 -70 -7 -70 -6 0 220 0 220 70 0 70 0 0 70 0 70 85 0 85 0 0 65 0 65 200 0
200 0 0 -65z m-5127 -185 c3 -12 14 -20 26 -20 16 0 21 -6 21 -25 0 -14 5 -25
10 -25 15 0 13 -319 -2 -375 -8 -31 -17 -45 -29 -45 -10 0 -20 -9 -24 -19 -6
-21 -38 -36 -55 -26 -5 3 -10 17 -10 31 0 21 -4 25 -23 22 -13 -1 -32 7 -44
19 -15 15 -29 20 -44 16 -18 -5 -21 -3 -16 12 8 20 -17 44 -45 45 -11 0 -18 8
-18 20 0 16 -7 20 -30 20 -25 0 -30 4 -30 25 0 18 -7 26 -25 31 -28 7 -34 38
-10 48 8 3 15 12 15 20 0 9 11 18 25 22 15 4 25 13 25 24 0 11 12 20 33 26 22
7 33 17 35 33 3 17 8 22 24 18 28 -8 48 2 48 23 0 25 18 34 36 19 12 -10 16
-9 21 9 3 12 9 22 13 22 4 0 12 11 18 25 14 30 48 33 55 5z m637 -250 l0 -230
-50 0 -50 0 -2 173 -3 172 -35 3 c-41 4 -50 15 -50 64 l0 37 93 4 c50 1 93 4
95 5 1 1 2 -101 2 -228z m3050 175 l0 -55 -115 0 -115 0 0 -30 0 -30 99 0
c104 0 111 -3 111 -51 0 -14 7 -19 30 -19 l30 0 0 -65 0 -65 -29 0 c-28 0 -30
-3 -33 -42 l-3 -43 -125 0 -125 0 -3 43 c-3 39 -5 42 -31 42 -24 0 -30 5 -35
31 -8 40 -8 149 1 217 6 50 7 53 32 50 23 -3 26 1 29 29 l3 32 132 4 c73 1
135 4 140 5 4 1 7 -23 7 -53z m478 -3 l3 -52 -100 0 c-56 0 -101 -3 -101 -7 0
-5 -3 -18 -6 -30 -6 -22 -4 -22 92 -25 l99 -3 3 -32 c3 -29 7 -33 33 -33 l29
0 0 -65 0 -65 -29 0 c-28 0 -30 -3 -33 -42 l-3 -43 -127 -3 -128 -3 0 46 c0
45 0 45 -35 45 l-35 0 0 100 0 100 25 0 c25 0 25 1 25 80 l0 79 108 3 c59 2
123 3 142 3 l35 -1 3 -52z m-3098 -2 l0 -50 -95 0 -95 0 0 -120 0 -120 95 0
95 0 0 -55 0 -55 -150 0 -150 0 0 225 0 225 150 0 150 0 0 -50z m640 -35 l0
-85 58 -2 c31 -1 65 -2 75 -1 14 0 17 -10 17 -59 l0 -58 -75 0 -75 0 0 -81 0
-80 -52 3 -53 3 -3 78 -3 77 -73 0 -74 0 -4 51 c-1 28 1 53 6 56 5 3 40 8 77
11 l69 5 0 83 0 84 55 0 55 0 0 -85z m1480 35 l0 -50 -120 0 -120 0 0 -30 0
-29 93 -3 92 -3 3 -34 c3 -30 6 -33 33 -29 26 4 29 1 35 -27 3 -17 4 -47 2
-66 -2 -29 -7 -34 -30 -37 -23 -3 -28 -8 -28 -32 0 -60 0 -60 -146 -60 l-134
0 0 55 0 55 113 0 113 0 1 40 2 40 -95 0 c-94 0 -94 0 -94 25 0 21 -5 25 -30
25 l-30 0 0 105 0 105 170 0 170 0 0 -50z m-1872 -319 c2 -19 1 -44 -2 -57 -6
-22 -12 -24 -61 -24 l-55 0 0 54 c0 54 0 55 33 59 70 9 82 5 85 -32z m-419
-607 l31 -6 0 -94 0 -94 105 0 105 0 0 -94 0 -93 38 -7 c20 -3 63 -6 95 -6
l58 0 -3 -97 -3 -98 -197 -3 -198 -2 0 -90 0 -90 371 0 371 0 -3 88 -3 87 312
3 312 2 0 100 0 100 650 0 650 0 0 193 0 194 164 6 c91 4 172 4 181 0 15 -5
17 -30 14 -257 l-4 -251 113 -3 112 -3 -2 -202 -3 -202 -252 -3 -253 -2 0 -96
0 -95 63 2 62 3 3 -97 3 -97 114 0 114 0 3 -107 3 -108 70 0 70 0 3 -547 2
-548 -100 0 -100 0 0 -120 0 -120 -100 0 -100 0 0 -189 c0 -163 -2 -190 -16
-195 -9 -3 -92 -6 -185 -6 l-169 0 0 -100 0 -100 -115 0 -115 0 0 -94 c0 -85
-2 -94 -20 -99 -11 -3 -395 -6 -854 -6 l-835 -2 -3 103 -3 103 -140 0 -140 0
-3 103 -3 103 -103 -5 c-88 -4 -105 -3 -110 10 -3 9 -6 54 -6 100 l0 85 -200
-3 -199 -3 -3 100 -3 100 -112 -4 -111 -3 -7 53 c-3 30 -5 315 -3 634 l3 580
46 5 47 5 -2 145 -1 145 -40 3 c-22 2 -43 8 -46 14 -4 6 -7 221 -8 479 l-2
469 116 0 115 0 0 160 0 159 108 4 c59 1 132 4 163 5 31 1 71 -1 88 -4z m-644
-4209 c7 -76 12 -92 45 -143 38 -60 82 -102 106 -102 8 0 13 -5 12 -12 -4 -17
50 -41 104 -46 l48 -5 0 -108 0 -109 -70 0 c-73 0 -140 20 -176 52 -11 10 -23
15 -27 12 -3 -3 -12 3 -19 15 -7 12 -16 21 -19 21 -4 0 -9 -98 -11 -218 l-3
-218 -35 -69 c-59 -116 -146 -164 -303 -164 -83 -1 -107 3 -159 25 -78 33
-170 123 -184 181 -4 16 -14 33 -23 39 -12 10 -15 35 -15 132 1 110 3 123 27
163 31 54 121 149 140 149 8 0 26 9 40 20 20 16 40 20 106 20 l81 0 0 -104 c0
-115 5 -108 -73 -121 -24 -4 -50 -19 -72 -41 -30 -30 -35 -41 -35 -84 0 -57
10 -85 42 -121 55 -62 113 -69 180 -23 74 51 73 48 70 512 -2 226 0 417 3 422
3 6 51 10 110 10 l103 0 7 -85z m1575 -200 l0 -76 -72 3 -73 3 -3 67 -3 67 68
4 c37 2 71 4 76 5 4 1 7 -32 7 -73z m294 19 c3 -26 6 -131 6 -233 l1 -186 34
40 c18 22 49 56 68 75 18 19 36 43 40 52 3 9 16 18 29 20 14 2 24 11 26 24 4
25 40 34 135 34 l57 0 0 -41 c0 -50 -15 -79 -40 -79 -12 0 -20 -7 -20 -17 0
-9 -2 -14 -6 -11 -4 5 -28 -17 -91 -87 -7 -7 -13 -17 -13 -20 0 -4 -10 -15
-22 -25 -22 -18 -22 -20 -8 -47 9 -15 21 -28 27 -28 6 0 15 -3 19 -7 4 -5 2
-8 -4 -8 -18 0 -2 -29 19 -35 10 -4 19 -10 19 -15 0 -12 60 -77 60 -65 0 6 13
-15 29 -45 20 -38 25 -57 17 -62 -6 -4 -43 -8 -81 -8 -67 0 -71 1 -102 35 -18
19 -37 35 -43 35 -5 0 -9 5 -8 12 2 7 -4 12 -12 13 -8 1 -14 6 -12 13 1 7 -5
12 -13 12 -8 0 -15 6 -15 13 0 7 -12 21 -26 32 -14 11 -30 30 -35 42 -5 13
-15 23 -23 23 -11 0 -14 -21 -13 -112 l2 -113 -82 -3 -83 -3 0 411 0 410 79 0
78 0 7 -46z m1876 -186 l0 -233 38 45 c20 25 51 58 68 75 16 16 33 38 37 47 3
10 18 20 32 24 15 4 25 13 25 24 0 15 10 20 53 24 28 2 69 5 90 4 37 0 37 0
37 -42 0 -34 -6 -48 -30 -71 -16 -16 -30 -25 -30 -21 0 14 -131 -140 -136
-161 -3 -11 1 -34 10 -50 8 -15 15 -22 16 -15 0 21 20 3 20 -19 0 -11 7 -22
15 -25 8 -4 15 -11 15 -18 0 -6 16 -24 35 -41 19 -16 35 -35 35 -42 0 -7 4
-13 8 -13 11 0 33 -63 24 -71 -4 -4 -34 -8 -67 -9 -87 -2 -95 -1 -95 13 0 6
-16 23 -35 37 -19 14 -35 29 -35 34 0 5 -11 19 -24 31 -14 13 -22 26 -18 30 4
4 -4 4 -18 0 -22 -7 -23 -6 -11 9 9 10 10 16 2 16 -12 0 -52 36 -50 46 0 3 -1
8 -4 10 -7 7 -19 -105 -17 -147 5 -82 7 -79 -70 -79 -89 0 -90 2 -85 175 2 72
4 246 4 388 l1 257 80 0 80 0 0 -232z m-2380 137 l0 -85 -100 0 -100 0 -1 -35
c-1 -19 -3 -39 -4 -45 -1 -5 -3 -134 -4 -285 l-1 -276 -77 3 -78 3 -3 318 -2
318 -78 -1 c-42 -1 -94 -1 -114 -1 l-38 1 0 80 0 80 298 3 c163 1 298 3 300 5
1 1 2 -36 2 -83z m1302 -10 c3 -11 6 -44 7 -72 l1 -53 74 0 c50 0 75 -4 79
-12 2 -7 4 -40 3 -73 l-1 -60 -77 -3 -78 -3 0 -111 c0 -110 0 -111 30 -139 23
-22 39 -29 70 -29 l40 0 0 -81 0 -82 -83 5 c-69 3 -88 8 -107 26 -13 12 -29
22 -35 22 -6 0 -19 16 -28 35 -9 19 -23 35 -32 35 -13 0 -15 24 -15 160 l0
160 -52 0 c-95 0 -98 2 -98 81 l0 69 75 0 75 0 0 69 c0 79 0 78 95 77 41 -1
51 -5 57 -21z m633 -135 c4 -12 15 -20 28 -20 22 0 117 -81 117 -100 0 -5 5
-10 11 -10 6 0 9 -6 6 -14 -3 -7 -1 -18 4 -23 5 -5 12 -43 15 -85 12 -132 -38
-239 -141 -302 -47 -29 -56 -31 -157 -33 -88 -1 -108 2 -108 13 0 8 -13 17
-30 21 -16 3 -30 9 -30 13 0 4 -17 25 -37 47 -21 23 -43 47 -50 56 -19 24 -43
117 -43 169 0 62 46 175 80 196 14 9 33 24 43 34 10 11 31 21 47 25 16 3 31
11 34 18 3 9 34 13 104 14 93 2 101 0 107 -19z m-1725 -290 l0 -291 -77 3 -78
3 -3 275 c-1 151 0 280 3 287 3 9 28 13 80 13 l75 0 0 -290z"/>
<path d="M6247 7873 c-4 -3 -7 -21 -7 -40 l0 -33 80 0 80 0 0 40 0 40 -73 0
c-41 0 -77 -3 -80 -7z"/>
<path d="M6735 7868 c-3 -8 -4 -25 -2 -38 4 -24 8 -25 81 -28 l77 -3 -3 38 -3
38 -73 3 c-53 2 -74 -1 -77 -10z"/>
<path d="M3935 5518 l0 -113 -108 0 -107 0 0 -322 0 -323 140 0 140 0 0 -100
0 -100 196 0 196 0 -2 93 c-1 50 -2 98 -1 105 1 9 28 12 101 12 l100 0 0 310
0 310 -94 0 -94 0 -7 105 c-4 57 -5 111 -1 120 5 13 -23 15 -227 15 l-232 0 0
-112z"/>
<path d="M5940 5514 l0 -115 -110 3 -110 3 0 -322 0 -323 124 0 124 0 6 -34
c4 -19 4 -64 0 -100 l-7 -66 202 0 201 0 0 105 0 105 105 0 104 0 1 310 0 310
-73 0 c-123 0 -117 -6 -117 126 l0 114 -225 0 -225 0 0 -116z"/>
<path d="M4930 4875 l0 -115 55 0 55 0 0 -210 0 -210 -135 0 -135 0 0 105 0
105 -115 0 -114 0 -3 -62 c-3 -56 7 -145 19 -173 22 -53 80 -105 117 -105 25
0 26 -2 26 -55 l0 -55 460 0 460 0 0 56 c0 45 3 55 15 50 8 -3 21 1 29 9 8 8
21 15 28 15 18 0 38 20 38 38 0 8 7 20 15 26 18 13 34 109 35 199 l0 57 -115
0 -115 0 0 -105 0 -105 -140 0 -140 0 0 210 0 210 60 0 60 0 0 115 0 115 -230
0 -230 0 0 -115z"/>
<path d="M6168 2419 c-46 -24 -68 -64 -68 -123 0 -58 13 -84 58 -119 33 -26
42 -28 86 -22 64 8 107 51 114 113 6 52 -15 122 -36 122 -9 0 -12 3 -9 6 12
13 -42 44 -75 44 -18 -1 -50 -10 -70 -21z"/>
</g>
</svg>
